
nColumns=19
nRows=111
DataType=double
version=3
OpenSimVersion=4.4-2022-10-11-798caa840
endheader
time	ground_force_calcn_r_vx	ground_force_calcn_r_vy	ground_force_calcn_r_vz	ground_force_calcn_r_px	ground_force_calcn_r_py	ground_force_calcn_r_pz	ground_force_calcn_r_mx	ground_force_calcn_r_my	ground_force_calcn_r_mz	ground_force_calcn_l_vx	ground_force_calcn_l_vy	ground_force_calcn_l_vz	ground_force_calcn_l_px	ground_force_calcn_l_py	ground_force_calcn_l_pz	ground_force_calcn_l_mx	ground_force_calcn_l_my	ground_force_calcn_l_mz
1.37	-145.785	243.238	-44.314	-0.0950276	0	-0.404962	-0.402495	0.67155	-0.122346	0	0	0	0	0	0	0	0	0
1.38	-421.827	737.71	-131.344	-0.100944	0	-0.409361	-1.96196	3.43116	-0.610894	0	0	0	0	0	0	0	0	0
1.39	-263.852	771.7380000000001	-119.107	-0.112845	0	-0.414147	-2.53942	7.42753	-1.14634	-62.6097	78.63979999999999	10.1701	-0.0539165	0	-0.822612	0.119212	-0.149735	-0.0193645
1.4	-9.58278	598.904	-36.8927	-0.12979	0	-0.420009	-0.110477	6.9046	-0.425326	-276.294	394.772	53.3498	-0.06785629999999999	0	-0.8234359999999999	0.466347	-0.6663210000000001	-0.090047
1.41	-105.168	623.624	-38.1337	-0.133304	0	-0.428334	-0.323514	1.91837	-0.117306	-373.851	664.1849999999999	106.768	-0.07234409999999999	0	-0.817159	1.91038	-3.39399	-0.545585
1.42	-230.026	735.782	-41.5771	-0.144775	0	-0.437464	1.08538	-3.47179	0.196181	-239.244	732.068	103.886	-0.0812036	0	-0.809507	1.72682	-5.28393	-0.749829
1.43	-203.302	920.099	8.7143	-0.174847	0	-0.454382	1.69506	-7.67146	-0.0726567	-186.913	828.098	97.4526	-0.09415510000000001	0	-0.8037029999999999	0.0450209	-0.19946	-0.0234729
1.44	-117.373	998.304	25.3055	-0.187964	0	-0.461577	1.131	-9.619590000000001	-0.243842	-169.605	1034.73	87.50839999999999	-0.116528	0	-0.795945	-1.02692	6.26505	0.529841
1.45	-116.692	861.163	-21.1752	-0.170726	0	-0.45563	0.986352	-7.27909	0.178986	-121.757	1253.91	55.0595	-0.137653	0	-0.787422	-1.17493	12.0999	0.531311
1.46	-159.374	734.954	-70.2204	-0.142765	0	-0.446609	0.6884439999999999	-3.17475	0.303328	-126.682	1222.03	47.2391	-0.134153	0	-0.78524	-1.33812	12.9082	0.498982
1.47	-184.719	689.373	-78.5658	-0.126207	0	-0.443875	0.519528	-1.93889	0.220969	-181.704	1045.19	78.1069	-0.110545	0	-0.789156	-1.37899	7.93215	0.592769
1.48	-180.999	665.647	-57.8689	-0.119967	0	-0.445125	0.88993	-3.27282	0.284527	-199.666	935.73	102.271	-0.09148920000000001	0	-0.792165	-0.505605	2.3695	0.258975
1.49	-166.21	636.308	-37.4085	-0.116337	0	-0.446604	1.27892	-4.89614	0.287844	-194.533	882.414	108.923	-0.0828979	0	-0.7926840000000001	0.171875	-0.779635	-0.0962361
1.5	-162.464	613.434	-25.4914	-0.112745	0	-0.447798	1.52462	-5.75667	0.23922	-197.015	838.026	105.222	-0.07709920000000001	0	-0.79215	0.53184	-2.26225	-0.284047
1.51	-164.789	601.538	-19.8946	-0.10944	0	-0.448297	1.6847	-6.14972	0.203389	-208.965	803.179	103.922	-0.07166210000000001	0	-0.791212	0.8713920000000001	-3.34929	-0.43336
1.52	-157.337	590.083	-14.701	-0.107114	0	-0.448425	1.76583	-6.62267	0.164993	-207.7	771.306	100.668	-0.0679839	0	-0.790007	1.04566	-3.88312	-0.506809
1.53	-148.687	583.564	-13.4518	-0.105904	0	-0.447996	1.83493	-7.20171	0.166007	-193.118	743.395	91.813	-0.066762	0	-0.788506	0.914828	-3.52157	-0.434931
1.54	-143.869	585.175	-17.5159	-0.105577	0	-0.447207	1.86536	-7.58721	0.227106	-174.38	744.313	80.762	-0.06815839999999999	0	-0.786815	0.553863	-2.36408	-0.256515
1.55	-135.987	590.3920000000001	-24.7029	-0.106105	0	-0.446161	1.72534	-7.49062	0.313419	-149.3	790.328	71.4034	-0.071615	0	-0.785234	0.147562	-0.781129	-0.07057239999999999
1.56	-122.285	596.346	-35.4103	-0.10742	0	-0.445006	1.37108	-6.68634	0.397027	-122.087	851.8099999999999	66.4529	-0.07491689999999999	0	-0.784	-0.101985	0.711553	0.055511
1.57	-106.327	604.401	-48.7328	-0.109097	0	-0.443795	0.931552	-5.29528	0.426958	-98.8874	897.693	64.9422	-0.07681	0	-0.782998	-0.206732	1.8767	0.135767
1.58	-92.2959	614.996	-59.5737	-0.110593	0	-0.442694	0.596205	-3.97269	0.384829	-85.5963	920.123	65.6571	-0.0769595	0	-0.782062	-0.237454	2.55252	0.18214
1.59	-82.8128	624.019	-62.5874	-0.111185	0	-0.442316	0.44188	-3.32969	0.333959	-83.11190000000001	921.694	67.874	-0.0753109	0	-0.781273	-0.242907	2.69379	0.198372
1.6	-80.2039	628.5700000000001	-56.2582	-0.110572	0	-0.442968	0.473157	-3.7082	0.331891	-87.7694	910.515	69.1005	-0.0722632	0	-0.780502	-0.234617	2.4339	0.184713
1.61	-82.0782	627.034	-43.6175	-0.109137	0	-0.443984	0.640397	-4.8923	0.340316	-97.16840000000001	891.772	67.70959999999999	-0.0684221	0	-0.77966	-0.206196	1.89239	0.143683
1.62	-85.22020000000001	618.616	-31.8725	-0.107216	0	-0.444723	0.833025	-6.04696	0.311553	-108.408	864.147	64.8961	-0.064307	0	-0.778789	-0.15585	1.24232	0.0932963
1.63	-88.47239999999999	607.085	-26.4584	-0.105305	0	-0.444929	0.948942	-6.5115	0.283789	-117.4	832.812	61.7179	-0.0604847	0	-0.777997	-0.0884016	0.627102	0.0464732
1.64	-89.6653	597.397	-28.037	-0.104051	0	-0.444498	0.932939	-6.21573	0.291716	-121.391	804.859	58.005	-0.0575559	0	-0.777294	-0.0271262	0.179855	0.0129619
1.65	-87.2749	592.546	-34.6574	-0.103712	0	-0.44356	0.798251	-5.41966	0.31699	-119.848	783.905	54.3775	-0.0557332	0	-0.776505	0.00388152	-0.0253884	-0.00176113
1.66	-80.7243	594.559	-42.945	-0.104366	0	-0.442604	0.6021260000000001	-4.43484	0.320328	-113.978	771.742	50.8704	-0.0549899	0	-0.775717	-0.00748871	0.0507057	0.00334233
1.67	-70.1576	605.038	-49.8392	-0.106285	0	-0.441989	0.410329	-3.53868	0.291493	-105.799	766.782	47.4019	-0.0554022	0	-0.774997	-0.0501763	0.363655	0.0224809
1.68	-56.5792	623.804	-53.4001	-0.109466	0	-0.441969	0.271114	-2.98912	0.255881	-98.7903	766.832	44.3011	-0.0568429	0	-0.774309	-0.102909	0.798804	0.0461482
1.69	-41.7581	647.735	-52.4751	-0.113319	0	-0.442647	0.189471	-2.939	0.238098	-92.218	769.146	42.2618	-0.059388	0	-0.7739509999999999	-0.15219	1.26934	0.0697456
1.7	-26.7172	671.909	-48.2912	-0.117421	0	-0.443763	0.130644	-3.28556	0.236138	-85.0051	768.491	41.2309	-0.06291190000000001	0	-0.7738429999999999	-0.177256	1.60248	0.0859761
1.71	-13.2681	692.875	-44.9512	-0.121691	0	-0.44488	0.06895030000000001	-3.60066	0.233598	-77.2563	759.4829999999999	41.222	-0.06726409999999999	0	-0.774073	-0.173298	1.70364	0.0924676
1.72	-0.425894	707.545	-44.6744	-0.126452	0	-0.445807	0.00218426	-3.62874	0.229119	-69.4533	742.5940000000001	43.4507	-0.07226929999999999	0	-0.7746769999999999	-0.14454	1.54542	0.0904257
1.73	11.982	713.349	-46.9595	-0.131455	0	-0.446328	-0.0560202	-3.33517	0.219553	-62.7438	724.446	49.2748	-0.07776089999999999	0	-0.775805	-0.105001	1.21235	0.08246050000000001
1.74	18.9941	708.3579999999999	-50.9867	-0.135644	0	-0.4463	-0.0754731	-2.81466	0.202595	-56.0326	714.2190000000001	57.4862	-0.0839491	0	-0.777286	-0.0710653	0.905832	0.0729088
1.75	18.8284	694.0309999999999	-54.2979	-0.138651	0	-0.446098	-0.0622651	-2.29515	0.179562	-40.5363	731.496	61.6625	-0.0940989	0	-0.777687	-0.0796785	1.43783	0.121204
1.76	15.3521	676.693	-54.2713	-0.141224	0	-0.446308	-0.0446079	-1.96623	0.157694	6.22852	796.067	51.5765	-0.113312	0	-0.774701	0.0281856	3.60241	0.233397
1.77	12.841	664.025	-51.555	-0.144288	0	-0.447102	-0.0354198	-1.8316	0.142205	68.7925	853.729	39.1491	-0.132828	0	-0.771031	0.4243	5.26565	0.241465
1.78	13.7866	660.26	-48.4197	-0.148485	0	-0.448411	-0.0359882	-1.72352	0.126393	79.4755	840.808	45.7969	-0.142326	0	-0.770806	0.439397	4.64858	0.253198
1.79	19.0367	663.691	-46.0805	-0.153692	0	-0.449945	-0.0418282	-1.45829	0.10125	45.1211	785.357	56.7843	-0.144218	0	-0.77242	0.194881	3.392	0.245255
1.8	25.5711	670.005	-46.311	-0.158624	0	-0.451035	-0.033101	-0.867299	0.059948	18.7799	743.689	57.0936	-0.146361	0	-0.7728699999999999	0.0777325	3.07823	0.236318
1.81	30.9537	681.253	-48.8342	-0.162511	0	-0.451634	-0.00619137	-0.136264	0.00976784	17.7386	737.407	54.0166	-0.15138	0	-0.772545	0.0747471	3.10729	0.227615
1.82	33.974	696.216	-53.0787	-0.164858	0	-0.45164	0.0305222	0.625478	-0.0476857	24.0152	751.466	57.5875	-0.15533	0	-0.773266	0.0835321	2.61383	0.200307
1.83	33.2913	709.357	-59.0172	-0.164772	0	-0.451011	0.0673107	1.43423	-0.119325	24.0893	775.568	67.3858	-0.155635	0	-0.775277	0.0515851	1.66081	0.1443
1.84	29.6154	721.25	-66.12139999999999	-0.161691	0	-0.449687	0.091781	2.23523	-0.204917	21.4189	803.063	78.7949	-0.151686	0	-0.777586	0.0192827	0.72297	0.07093629999999999
1.85	24.0863	733.364	-73.7286	-0.15528	0	-0.447591	0.0927391	2.82366	-0.283877	14.8627	823.802	87.8143	-0.142119	0	-0.779724	0.00334572	0.185444	0.0197677
1.86	13.736	747.749	-81.92659999999999	-0.146197	0	-0.444867	0.0513606	2.79593	-0.306334	-5.42662	836.116	93.5001	-0.126992	0	-0.781635	0.000321402	-0.0495206	-0.00553773
1.87	-3.10937	759.4299999999999	-86.52370000000001	-0.135994	0	-0.442231	-0.008089789999999999	1.97584	-0.225113	-34.864	841.877	96.9507	-0.109857	0	-0.783025	0.009763640000000001	-0.235767	-0.0271509
1.88	-17.649	765.619	-83.0431	-0.127071	0	-0.440355	-0.0132763	0.575928	-0.0624683	-58.8266	848.795	96.7362	-0.0953942	0	-0.783644	0.0272018	-0.392488	-0.0447314
1.89	-30.0154	768.3869999999999	-77.0813	-0.120206	0	-0.439182	0.0262987	-0.673242	0.06753679999999999	-73.58	860.169	91.6139	-0.0856407	0	-0.78333	0.0219749	-0.256892	-0.0273608
1.9	-44.1766	762.59	-73.6878	-0.114397	0	-0.438111	0.07435120000000001	-1.28347	0.12402	-84.9414	862.564	83.7778	-0.0785738	0	-0.78263	0.0219346	-0.222742	-0.0216341
1.91	-57.4258	737.75	-69.15770000000001	-0.108514	0	-0.436733	0.117269	-1.50655	0.141226	-97.08759999999999	841.048	73.48909999999999	-0.0717613	0	-0.781799	0.077539	-0.6717030000000001	-0.058692
1.92	-64.9439	688.694	-62.6147	-0.102482	0	-0.435062	0.122477	-1.2988	0.118085	-103.064	785.4059999999999	58.5786	-0.064591	0	-0.780847	0.17744	-1.35219	-0.100852
1.93	-61.5222	612.13	-52.8522	-0.0965206	0	-0.433073	0.0833204	-0.829017	0.0715785	-91.60039999999999	691.114	39.7263	-0.0574967	0	-0.78023	0.235458	-1.77651	-0.102116
1.94	-43.4034	508.532	-38.0889	-0.091058	0	-0.430529	0.059303	-0.694819	0.0520417	-59.2608	558.871	19.7164	-0.0505242	0	-0.780281	0.156801	-1.47874	-0.0521686
1.95	-14.0732	375.944	-18.3965	-0.0863487	0	-0.427466	0.0375542	-1.0032	0.0490907	-12.8919	391.863	0.235486	-0.0438824	0	-0.780546	0.0195766	-0.5950530000000001	-0.000357591
1.96	8.55701	216.475	-0.292649	-0.0810796	0	-0.424518	-0.0426824	-1.07978	0.00145973	26.3225	204.345	-14.6978	-0.0345472	0	-0.778724	0.0550303	0.427207	-0.0307274
1.97	11.3718	68.08	6.25658	-0.06958019999999999	0	-0.426318	-0.10045	-0.601368	-0.055266	26.4041	54.9398	-12.816	0.000317451	0	-0.757177	0.458506	0.954026	-0.222549
1.98	0	0	0	0	0	0	0	0	0	0	0	0	0	0	0	0	0	0
1.99	0	0	0	0	0	0	0	0	0	0	0	0	0	0	0	0	0	0
2	0	0	0	0	0	0	0	0	0	0	0	0	0	0	0	0	0	0
2.01	0	0	0	0	0	0	0	0	0	0	0	0	0	0	0	0	0	0
2.02	0	0	0	0	0	0	0	0	0	0	0	0	0	0	0	0	0	0
2.03	0	0	0	0	0	0	0	0	0	0	0	0	0	0	0	0	0	0
2.04	0	0	0	0	0	0	0	0	0	0	0	0	0	0	0	0	0	0
2.05	0	0	0	0	0	0	0	0	0	0	0	0	0	0	0	0	0	0
2.06	0	0	0	0	0	0	0	0	0	0	0	0	0	0	0	0	0	0
2.07	0	0	0	0	0	0	0	0	0	0	0	0	0	0	0	0	0	0
2.08	0	0	0	0	0	0	0	0	0	0	0	0	0	0	0	0	0	0
2.09	0	0	0	0	0	0	0	0	0	0	0	0	0	0	0	0	0	0
2.1	0	0	0	0	0	0	0	0	0	0	0	0	0	0	0	0	0	0
2.11	0	0	0	0	0	0	0	0	0	0	0	0	0	0	0	0	0	0
2.12	0	0	0	0	0	0	0	0	0	0	0	0	0	0	0	0	0	0
2.13	0	0	0	0	0	0	0	0	0	0	0	0	0	0	0	0	0	0
2.14	0	0	0	0	0	0	0	0	0	0	0	0	0	0	0	0	0	0
2.15	0	0	0	0	0	0	0	0	0	0	0	0	0	0	0	0	0	0
2.16	0	0	0	0	0	0	0	0	0	0	0	0	0	0	0	0	0	0
2.17	0	0	0	0	0	0	0	0	0	0	0	0	0	0	0	0	0	0
2.18	0	0	0	0	0	0	0	0	0	0	0	0	0	0	0	0	0	0
2.19	0	0	0	0	0	0	0	0	0	0	0	0	0	0	0	0	0	0
2.2	0	0	0	0	0	0	0	0	0	0	0	0	0	0	0	0	0	0
2.21	0	0	0	0	0	0	0	0	0	0	0	0	0	0	0	0	0	0
2.22	0	0	0	0	0	0	0	0	0	0	0	0	0	0	0	0	0	0
2.23	0	0	0	0	0	0	0	0	0	0	0	0	0	0	0	0	0	0
2.24	0	0	0	0	0	0	0	0	0	0	0	0	0	0	0	0	0	0
2.25	0	0	0	0	0	0	0	0	0	0	0	0	0	0	0	0	0	0
2.26	0	0	0	0	0	0	0	0	0	0	0	0	0	0	0	0	0	0
2.27	0	0	0	0	0	0	0	0	0	0	0	0	0	0	0	0	0	0
2.28	0	0	0	0	0	0	0	0	0	0	0	0	0	0	0	0	0	0
2.29	0	0	0	0	0	0	0	0	0	0	0	0	0	0	0	0	0	0
2.3	0	0	0	0	0	0	0	0	0	0	0	0	0	0	0	0	0	0
2.31	0	0	0	0	0	0	0	0	0	0	0	0	0	0	0	0	0	0
2.32	0	0	0	0	0	0	0	0	0	0	0	0	0	0	0	0	0	0
2.33	0	0	0	0	0	0	0	0	0	0	0	0	0	0	0	0	0	0
2.34	0	0	0	0	0	0	0	0	0	0	0	0	0	0	0	0	0	0
2.35	0	0	0	0	0	0	0	0	0	0	0	0	0	0	0	0	0	0
2.36	0	0	0	0	0	0	0	0	0	0	0	0	0	0	0	0	0	0
2.37	0	0	0	0	0	0	0	0	0	0	0	0	0	0	0	0	0	0
2.38	0	0	0	0	0	0	0	0	0	0	0	0	0	0	0	0	0	0
2.39	0	0	0	0	0	0	0	0	0	0	0	0	0	0	0	0	0	0
2.4	0	0	0	0	0	0	0	0	0	0	0	0	0	0	0	0	0	0
2.41	0	0	0	0	0	0	0	0	0	0	0	0	0	0	0	0	0	0
2.42	0	0	0	0	0	0	0	0	0	0	0	0	0	0	0	0	0	0
2.43	0	0	0	0	0	0	0	0	0	0	0	0	0	0	0	0	0	0
2.44	0	0	0	0	0	0	0	0	0	0	0	0	0	0	0	0	0	0
2.45	0	0	0	0	0	0	0	0	0	0	0	0	0	0	0	0	0	0
2.46	0	0	0	0	0	0	0	0	0	0	0	0	0	0	0	0	0	0
2.47	0	0	0	0	0	0	0	0	0	0	0	0	0	0	0	0	0	0
